<?xml version="1.0" encoding="UTF-8" standalone="no"?>
<!-- Generator: Adobe Illustrator 26.0.1, SVG Export Plug-In . SVG Version: 6.00 Build 0)  -->

<svg
   version="1.1"
   id="Layer_1"
   x="0px"
   y="0px"
   viewBox="0 0 371.34897 551.89001"
   xml:space="preserve"
   sodipodi:docname="docsplan_logo_white_plain.svg"
   inkscape:version="1.2.1 (9c6d41e, 2022-07-14)"
   width="371.34897"
   height="551.89001"
   xmlns:inkscape="http://www.inkscape.org/namespaces/inkscape"
   xmlns:sodipodi="http://sodipodi.sourceforge.net/DTD/sodipodi-0.dtd"
   xmlns="http://www.w3.org/2000/svg"
   xmlns:svg="http://www.w3.org/2000/svg"><defs
   id="defs250" /><sodipodi:namedview
   id="namedview248"
   pagecolor="#ffffff"
   bordercolor="#000000"
   borderopacity="0.25"
   inkscape:showpageshadow="2"
   inkscape:pageopacity="0.0"
   inkscape:pagecheckerboard="0"
   inkscape:deskcolor="#d1d1d1"
   showgrid="false"
   showguides="true"
   inkscape:zoom="0.19075"
   inkscape:cx="595.01966"
   inkscape:cy="86.500655"
   inkscape:window-width="1390"
   inkscape:window-height="913"
   inkscape:window-x="500"
   inkscape:window-y="35"
   inkscape:window-maximized="0"
   inkscape:current-layer="g245" />
<style
   type="text/css"
   id="style213">
	.st0{fill:#BF0A30;}
	.st1{fill:#002868;}
</style>
<g
   id="g245"
   style="fill:#ffffff"
   transform="translate(-181.18513,-224.26)">
	
	<path
   class="st0"
   d="m 527.03,394.27 c -17.71,-37.81 -42.66,-72.01 -71.77,-101.85 -26.14,-26.64 -55.99,-49.67 -88.39,-68.16 -35.98,20.56 -68.8,46.65 -96.86,77.09 -35.84,38.96 -64.86,85.14 -79.65,136.23 -8.88,30.99 -12.13,64.04 -6.09,95.9 6.18,33.42 22.98,64.82 47.47,88.39 30.08,29.34 70.77,46.78 112.38,50.99 -0.04,-7.42 -0.04,-17.65 -0.04,-25.06 l -0.16,-0.01 v -62.5 l -78.7,-53.28 -6.67,9.85 73.45,49.74 v 55.05 l -0.16,-0.01 c -23.3,-4.26 -45.77,-13.37 -65.14,-27.05 -26.37,-18.31 -46.42,-45.68 -55.3,-76.63 -8.97,-30.3 -7.19,-62.85 0.64,-93.2 11.08,-42.34 33.37,-81.11 60.79,-114.94 26.55,-32.41 58.41,-60.43 94.03,-82.44 43.3,26.82 81.25,62.44 110.5,104.23 22.52,32.36 40.1,68.76 47.56,107.66 4.44,23.9 4.99,48.89 -0.96,72.6 -4.99,20.69 -14.88,40.19 -28.47,56.58 -23.48,28.24 -57.63,46.69 -93.57,53.19 l -0.32,0.06 v -25.23 l 78.48,-74.47 -8.19,-8.64 -82.19,77.98 v 32.37 l -0.04,0.01 c 0,7.05 0,17.14 -0.04,24.14 43.16,-4.35 85.37,-22.98 115.72,-54.29 27.15,-27.6 43.76,-65.05 46.6,-103.59 3.29,-41.61 -7.37,-83.22 -24.91,-120.71 z"
   id="path241"
   style="fill:#ffffff;fill-opacity:1;stroke:none;stroke-opacity:1" />
	<path
   class="st1"
   d="m 446.75,483.34 45.58,-0.1 -0.03,-11.9 -33.15,0.07 24.44,-23.51 -8.25,-8.57 -66.88,64.33 0.4,-30.35 -11.9,-0.16 -0.56,42.11 -23.59,22.69 V 459.9 l 94.69,-91.06 -8.25,-8.57 -31.62,30.41 0.74,-56.53 -11.9,-0.16 -0.9,68.28 -42.75,41.12 V 297.76 h -11.9 v 117.53 l -40.58,-33.89 -17.02,-48.31 -11.23,3.95 15.5,44 -50.81,15.51 3.48,11.38 53.67,-16.39 47,39.24 v 24.03 l -0.1,0.1 0.1,0.1 v 53.71 l -97.17,-81.14 -7.63,9.14 38.85,32.44 -50.79,13.52 3.06,11.5 58.91,-15.68 54.76,45.73 v 211.89 c -8.41,2.56 -14.57,10.28 -14.57,19.53 0,11.32 9.18,20.5 20.5,20.5 11.32,0 20.5,-9.18 20.5,-20.5 0,-9.23 -6.14,-16.95 -14.54,-19.52 V 554.46 Z"
   id="path243"
   style="fill:#ffffff;fill-opacity:1;stroke:none;stroke-opacity:1" />
</g>
</svg>
