<svg version="1.2"
    xmlns="http://www.w3.org/2000/svg" viewBox="0 0 909 563" width="909" height="563">
    <style>
                  .a {
                    fill: var(--primary);
                    stroke: var(--text);
                    stroke-width: 0.8;
                  }
                  .b {
                    fill: var(--secondary);
                  }
                  .c {
                    fill: var(--primary);
                  }
    </style>
    <path fill-rule="evenodd" class="a" d="m425.5 245.4h32.5q37.7 0 54.1 17.9 8.1 8.9 12.4 23.5 4.2 14.5 4.2 35.3 0 40.6-16.6 58.7-16.5 18.1-54.1 18.1h-32.5zm38.5 126.2q17.9 0 25.5-11.3 7.6-11.3 7.6-38.3 0-26.7-7.6-38-7.5-11.2-25.5-11.2h-8.2v98.8z" />
    <path fill-rule="evenodd" class="a" d="m595.2 401.9q-13.9 0-23.9-5.1-9.8-5.3-16.3-14.9-13.7-20.2-13.7-59.6 0-39.1 13.7-59.6 7.1-10.5 17.3-15.2 10.3-4.8 22.9-4.8 26.6 0 40.3 20.1 13.6 20.2 13.6 59.5 0 39.2-13.6 59.5-6.5 9.7-16.6 15-10 5.1-23.7 5.1zm0-27.2q11.7 0 17-12.5 5.4-12 5.4-40 0-27.8-5.4-39.8-5.3-12.5-17-12.5-11.6 0-17 12.5-5.3 12-5.3 39.8 0 28 5.3 40 5.3 12.5 17 12.5z" />
    <path class="a" d="m725 401.9q-30.7 0-47.1-20.4-16.4-20.6-16.4-59.2 0-38.7 16.4-59.2 16.4-20.4 47.1-20.4 9 0 17 1.8 8 1.9 15 5.6v33.7q-4.6-4.3-8.3-6.7-3.6-2.5-6.9-3.9-3.9-1.7-7.7-2.5-3.7-0.8-7.5-0.8-16.5 0-25 13.2-8.5 13.4-8.5 39.2 0 25.9 8.5 39.1 8.5 13.3 25 13.3 7.9 0 15.3-3.4 3.6-1.7 7.1-4 3.6-2.5 8-6.5v33.7q-7.2 3.7-15.1 5.6-7.9 1.8-16.9 1.8z" />
    <path class="a" d="m815.3 401.9q-6.2 0-12.1-0.6-5.8-0.6-11.7-2.1-11.9-2.7-22.2-8.1v-31.3q12.3 8.6 23.6 12.8 11.5 4.2 22.2 4.2 11.3 0 17.5-5.1 6.2-5.1 6.2-14.2 0-7.1-4.1-12.1-2.2-2.7-5.3-4.7-2.9-2-6.6-3.5l-14.9-5.6q-11.9-4.5-19.5-9.1-7.6-4.6-11.6-9.3-8.1-9.4-8.1-25.8 0-21 13.4-32.8 13.4-11.9 36.6-11.9 11.4 0 21.2 2.2 10 2.3 21 7.3v29.6q-19.7-14-39.9-14-11.1 0-16.7 4.4-5.9 4.4-5.9 12.5 0 6.5 4.3 10.6 2.1 2.1 6.1 4.2 4.1 2.2 11.7 5.1l13.1 4.9q18.6 6.9 27.2 17.9 8.7 11.2 8.7 28.9 0 22.7-13.8 34.1-13.7 11.5-40.4 11.5z" />
    <path fill-rule="evenodd" class="a" d="m367.9 420.7h36.9q28.1 0 40.6 10.1 12.3 9.9 12.3 32.5 0 22.6-12.3 32.5-12.5 10.1-40.6 10.1h-10v50.9h-26.9zm37.9 62.5q13.3 0 18.6-4.4 5.3-4.5 5.3-15.5 0-11.1-5.3-15.5-5.3-4.5-18.6-4.5h-11v39.9z" />
    <path class="a" d="m465.7 420.7h26.9v112.4h57.5v23.7h-84.4z" />
    <path fill-rule="evenodd" class="a" d="m595.3 420.7h32.9l36.7 136.1h-26.9l-8.4-33.6h-36l-8.2 33.6h-26.8zm29.1 80.3l-12.7-55.7-12.7 55.7z" />
    <path class="a" d="m674.8 420.7h28.9l37.9 98.9v-98.9h23.7v136.1h-28.7l-38.1-98.9v98.9h-23.7z" />
    <path class="a" d="m809.1 444.2h-34.6v-23.5h96v23.5h-34.6v112.6h-26.8z" />
    <path class="b" d="m398.9 296c-2.8 38.5-19.4 76-46.6 103.6-30.3 31.3-72.5 49.9-115.7 54.3 0.1-7 0.1-17.1 0.1-24.2v-32.4l82.2-77.9 8.2 8.6-78.5 74.5v25.2l0.3-0.1c36-6.5 70.1-24.9 93.6-53.1 13.6-16.4 23.5-35.9 28.5-56.6 5.9-23.7 5.4-48.7 0.9-72.6-7.4-38.9-25-75.3-47.5-107.7-29.3-41.8-67.2-77.4-110.5-104.2-35.7 22-67.5 50-94.1 82.4-27.4 33.9-49.7 72.6-60.8 115-7.8 30.3-9.6 62.9-0.6 93.2 8.9 30.9 28.9 58.3 55.3 76.6 19.4 13.7 41.8 22.8 65.1 27h0.2v-55l-73.5-49.7 6.7-9.9 78.7 53.3v62.5h0.2c0 7.4 0 17.6 0 25.1-41.6-4.3-82.3-21.7-112.4-51-24.4-23.6-41.2-55-47.4-88.4-6.1-31.9-2.8-64.9 6.1-95.9 14.8-51.1 43.8-97.3 79.6-136.3 28.1-30.4 60.9-56.5 96.9-77 32.4 18.4 62.2 41.5 88.4 68.1 29.1 29.9 54 64.1 71.7 101.9 17.6 37.5 28.2 79.1 24.9 120.7z" />
    <path class="c" d="m219.8 335.5v181.6c8.4 2.6 14.6 10.3 14.6 19.5 0 11.4-9.2 20.5-20.5 20.5-11.4 0-20.5-9.1-20.5-20.5 0-9.2 6.1-16.9 14.5-19.5v-211.9l-54.7-45.7-58.9 15.7-3.1-11.5 50.8-13.5-38.9-32.5 7.7-9.1 97.1 81.1v-53.7l-0.1-0.1 0.1-0.1v-24l-47-39.3-53.6 16.4-3.5-11.4 50.8-15.5-15.5-44 11.2-3.9 17 48.3 40.6 33.9v-117.5h11.9v145.6l42.8-41.1 0.9-68.3 11.9 0.2-0.8 56.5 31.7-30.4 8.2 8.5-94.7 91.1v78l23.6-22.6 0.6-42.2 11.9 0.2-0.4 30.4 66.8-64.4 8.3 8.6-24.4 23.5 33.1-0.1v11.9l-45.5 0.1z" />
</svg>
          