<?xml version="1.0" encoding="UTF-8" standalone="no"?>
<!-- Created with Inkscape (http://www.inkscape.org/) -->

<svg
   version="1.1"
   id="svg18"
   width="121.88219"
   height="129.51666"
   viewBox="0 0 121.88218 129.51667"
   sodipodi:docname="silene_dioica_seedling_dark.svg"
   inkscape:version="1.2.1 (9c6d41e, 2022-07-14)"
   xmlns:inkscape="http://www.inkscape.org/namespaces/inkscape"
   xmlns:sodipodi="http://sodipodi.sourceforge.net/DTD/sodipodi-0.dtd"
   xmlns="http://www.w3.org/2000/svg"
   xmlns:svg="http://www.w3.org/2000/svg">
  <defs
     id="defs22" />
  <sodipodi:namedview
     id="namedview20"
     pagecolor="#ffffff"
     bordercolor="#000000"
     borderopacity="0.25"
     inkscape:showpageshadow="2"
     inkscape:pageopacity="0.0"
     inkscape:pagecheckerboard="0"
     inkscape:deskcolor="#d1d1d1"
     showgrid="false"
     inkscape:zoom="0.5469304"
     inkscape:cx="203.86506"
     inkscape:cy="408.64432"
     inkscape:window-width="2560"
     inkscape:window-height="913"
     inkscape:window-x="0"
     inkscape:window-y="25"
     inkscape:window-maximized="0"
     inkscape:current-layer="g28" />
  <g
     id="g26"
     inkscape:groupmode="layer"
     inkscape:label="Page 1"
     transform="matrix(1.3333333,0,0,-1.3333333,-127.8565,743.42028)">
    <g
       id="g28"
       transform="scale(0.1)">
      <path
         d="m 1207.8122,5173.5056 c 0.6251,4.3677 1.193,8.7696 2.444,13.0099 1.1968,3.78 2.6699,7.5991 3.2547,11.5321 v -0.016 c 1.7083,15.1847 7.7096,29.2391 12.7245,43.5213 0.3473,1.0738 0.7062,2.1564 0.9505,3.2587 0.091,0.3943 0.5219,0.6306 0.9006,0.5321 0.3993,-0.1018 0.6169,-0.4995 0.5334,-0.8968 -3.8272,-13.0694 -9.9361,-25.4524 -12.3929,-38.9289 -0.7669,-3.7619 -1.0775,-7.6245 -2.0161,-11.3414 -1.1484,-4.4743 -3.0455,-8.7152 -3.7533,-13.2623 -0.4537,-2.5153 -0.8293,-5.0484 -1.1735,-7.5764 -0.072,-0.5455 -0.6169,-0.7357 -1.0217,-0.5883 -0.2734,0.099 -0.491,0.3532 -0.4465,0.7516"
         style="fill:#ffffff;fill-opacity:1;fill-rule:nonzero;stroke:none;stroke-width:0.999999"
         id="path8834-0" />
      <path
         d="m 1506.1508,5450.4211 c 1.5,8.68 23.5192,1.7381 30.8492,4.298 1.4798,0.6004 2.87,1.4901 3.8201,2.8301 8.0899,11.76 12.72,25.92 12.5099,40.23 -0.1999,14.2499 -1.9199,29.62 -10.83,41.25 -6.22,7.72 -13.8599,14 -22.04,19.4999 -2.4,1.61 -6.46,3.06 -5.25,6.6901 0.8305,2.5299 4.38,3.33 6.1,1.2299 6.46,-3.9198 12.5601,-8.4799 18.1,-13.6099 13.3201,-11.3401 20.01,-28.23 20.72,-45.4499 2.0101,-19.1002 -2.1024,-38.3042 -13.4823,-53.9142 -48.6696,-13.9297 -28.6537,-0.4924 -33.0436,-6.8324"
         style="fill:#ffffff;fill-opacity:1;fill-rule:nonzero;stroke:none"
         id="path40-3-4"
         sodipodi:nodetypes="cccccccccccc" />
      <path
         d="m 1517.6394,5449.8934 c -0.9399,0.69 0.9806,-3.8541 0.021,-3.1741 -0.06,0.032 -0.1204,0.08 -0.18,0.1196 -15.0201,-2.3799 -29.4801,4.3101 -42.8501,10.33 -13.9001,6.46 -27.9099,14.91 -36.05,28.32 -16.0201,28.27 -8.8701,72.3 23.02,86.0499 10.04,5.2601 22.2299,4.9 32.8101,2.1301 5.5299,-1.7299 33.3598,-7.3399 29.2,-15.3999 -3.5601,-4.76 -8.1901,1.9399 -12.1401,2.83 -26.03,9.27 -46.67,13.2799 -65.36,-11.5701 -11.58,-19.4099 -11.96,-46.8999 2,-65.1599 6.4899,-7.6301 14.84,-13.36 23.74,-17.8401 11.5501,-5.58 23.44,-11.45 36.32,-12.9199 3.2601,-0.4 6.49,0.2699 9.74,0.4099 2.7501,-0.07 4.9399,-2.1698 7.0499,-3.72 2.9401,-2.3 3.779,2.6085 0.829,2.6084 -0.7101,1e-4 -1.2217,-2.978 -1.9516,-2.4182"
         style="fill:#ffffff;fill-opacity:1;fill-rule:nonzero;stroke:none"
         id="path64-9-8"
         sodipodi:nodetypes="cccccccccccccccsc" />
      <path
         d="m 1485.76,5458.5092 c 0.8887,-0.3236 2.08,0.27 2.85,0.61 11.9,6.55 16.79,19.68 22.61,31.13 0.4805,1.2499 1.2899,2.94 2.93,2.2999 0.8702,-0.3295 1.42,-1.43 1.01,-2.3398 -2.1899,-4.82 -4.65,-9.5301 -7.11,-14.2201 -3.79,-7.8101 -13.3099,-21.4501 -22.89,-21.02 l 0.09,-0.011 c -2.2001,0.38 -1.71,3.82 0.51,3.5499"
         style="fill:#ffffff;fill-opacity:1;fill-rule:nonzero;stroke:none"
         id="path218-8-5" />
      <path
         d="m 1495.66,5453.2292 c -0.4103,0.9199 0.03,1.96 0.9099,2.38 1.8902,0.7497 3.1601,2.07 4.38,3.49 5.58,7.0001 9.43,14.95 13.36,22.8499 2.55,5.4301 5.19,10.96 7.5601,16.4901 0.8302,2.1699 4.23,0.84 3.35,-1.3097 -2.8,-5.9901 -18.87,-44.66 -27.63,-44.6602 -0.69,1e-4 -1.3401,0.2401 -1.93,0.76"
         style="fill:#ffffff;fill-opacity:1;fill-rule:nonzero;stroke:none"
         id="path220-1-5" />
      <path
         d="m 1500.56,5452.7892 c -0.5696,1.8401 1.6,2.42 2.84,2.82 6.63,2.83 10.6399,9.5699 14.54,15.1 7.16,10.81 11.67,23.24 15.3301,35.4801 0.84,2.7299 1.6599,5.4599 2.41,8.2199 0.2596,0.9502 1.2,1.56 2.1699,1.3201 0.9399,-0.22 1.5901,-1.2302 1.3201,-2.1701 -4.89,-17.53 -10.6001,-35.21 -21.75,-49.9101 -3.7501,-4.9499 -8.0401,-10.17 -14.25,-11.9401 -0.2602,-0.1296 -0.55,-0.1896 -0.8299,-0.1899 -0.7799,-1e-4 -1.5503,0.4695 -1.7801,1.27"
         style="fill:#ffffff;fill-opacity:1;fill-rule:nonzero;stroke:none"
         id="path222-4-5" />
      <path
         d="m 1509.44,5452.2692 c -0.3202,1.0698 0.41,2.0899 1.46,2.32 17.43,12.04 28.4701,44.47 33.0801,64.63 0.5,2.23 4.07,1.4399 3.4999,-0.8601 -5.08,-22.05 -13.38,-44.32 -28.25,-61.6799 -1.4599,-1.34 -5.39,-5.64 -7.98,-5.64 -0.74,-1e-4 -1.37,0.36 -1.81,1.23"
         style="fill:#ffffff;fill-opacity:1;fill-rule:nonzero;stroke:none"
         id="path224-7-4" />
      <path
         d="m 1517.0901,5450.5792 c -1.1901,2.53 2.6799,3.47 3.92,5.06 14.3099,14.26 21.7399,33.62 26.01,52.9899 0.5,2.25 4.06,1.4299 3.4901,-0.8499 -3.8602,-17.92 -10.6201,-35.4101 -22.3202,-49.7301 -1.5399,-1.6 -6.6999,-8.2199 -9.69,-8.2197 -0.5603,0 -1.0303,0.22 -1.4101,0.75"
         style="fill:#ffffff;fill-opacity:1;fill-rule:nonzero;stroke:none"
         id="path226-1-2" />
      <path
         d="m 1526.73,5450.1192 c -2.2599,0.53 -1.4202,4.0598 0.8401,3.4999 3.0498,0.76 5.0099,4.6201 6.7799,6.9001 8.1101,12.8399 13.12,27.2699 17.88,41.61 0.8,2.16 4.2101,0.8701 3.36,-1.3103 -3.52,-10.0798 -16.4,-50.7098 -28.48,-50.7099 -0.1298,7e-4 -0.2501,-5e-4 -0.38,0.01"
         style="fill:#ffffff;fill-opacity:1;fill-rule:nonzero;stroke:none"
         id="path228-3-1" />
      <path
         d="m 1467.1701,5547.2992 c -3.4001,5.29 -6.2401,11.2499 -10.5501,15.7499 -0.73,0.6301 -0.7304,1.8399 -0.07,2.54 3.53,3.5001 11.51,-13.7699 13.6796,-16.4302 0.8601,-1.3701 -0.4,-2.7101 -1.63,-2.71 -0.54,0 -1.06,0.2299 -1.4299,0.85"
         style="fill:#ffffff;fill-opacity:1;fill-rule:nonzero;stroke:none"
         id="path230-8-9" />
      <path
         d="m 1475.11,5546.1693 c -3.14,6.06 -6.13,12.44 -10.8,17.4998 -1.76,0.3601 -1.8401,3.0101 -0.09,3.48 2.1201,0.4401 3.5002,-1.8799 4.6901,-3.27 3.74,-5.0499 6.71,-10.65 9.4999,-16.2599 0.4303,-0.8899 -0.06,-1.99 -0.9296,-2.3701 -0.2298,-0.1106 -0.4698,-0.1603 -0.7098,-0.1604 -0.68,0 -1.3402,0.4197 -1.6601,1.08"
         style="fill:#ffffff;fill-opacity:1;fill-rule:nonzero;stroke:none"
         id="path232-4-2" />
      <path
         d="m 1488.4701,5533.2992 c -5.4301,12.09 -9.5,26.18 -19.12,35.58 -1.45,1.84 1.22,3.9699 2.86,2.4599 9.1701,-9.5 13.4401,-22.58 18.7101,-34.4401 0.54,-1.4399 1.88,-3.6 -0.08,-4.53 -0.2198,-0.09 -0.46,-0.1398 -0.7,-0.14 -0.7,0 -1.41,0.4001 -1.6699,1.0701"
         style="fill:#ffffff;fill-opacity:1;fill-rule:nonzero;stroke:none"
         id="path234-8-4" />
      <path
         d="m 1501.74,5518.7391 c -4.8998,18.3901 -12.16,36.0301 -23.8,51.1401 -1.4597,1.7801 1.3401,4.12 2.7901,2.2799 5.3101,-7.1701 10.05,-14.73 13.9301,-22.7301 4.41,-9.55 7.68,-19.5899 10.54,-29.6899 0.4001,-1.36 -0.7396,-2.2602 -1.82,-2.2601 -0.7,0 -1.3901,0.36 -1.6401,1.26"
         style="fill:#ffffff;fill-opacity:1;fill-rule:nonzero;stroke:none"
         id="path236-0-5" />
      <path
         d="m 1513.37,5503.0591 c -4.1199,22.6101 -9.58,46.32 -23.3999,64.9701 -1.5204,1.8897 1.4201,4.0799 2.96,2.3101 8.4399,-11.2501 13.3399,-24.9701 17.7499,-38.2201 2.5701,-9.39 4.5401,-18.94 6.25,-28.53 0.2001,-1.26 -0.84,-2.01 -1.85,-2.01 -0.7799,0 -1.56,0.46 -1.71,1.4799"
         style="fill:#ffffff;fill-opacity:1;fill-rule:nonzero;stroke:none"
         id="path238-4-8" />
      <path
         d="m 1521.1301,5510.5691 c -5.19,17.3101 -9.06,35.4801 -18.7002,50.99 -1.2098,1.9801 1.8602,3.8901 3.0801,1.8901 7.8201,-12.3501 11.69,-26.61 15.82,-40.51 1.1,-3.79 2.2,-7.57 3.2601,-11.3701 0.2701,-0.9498 -0.28,-1.9599 -1.23,-2.2299 -0.1502,-0.04 -0.3202,-0.07 -0.48,-0.07 -0.7699,0 -1.53,0.5196 -1.7499,1.3"
         style="fill:#ffffff;fill-opacity:1;fill-rule:nonzero;stroke:none"
         id="path240-6-6" />
      <path
         d="m 1530.2601,5513.0192 c -4.7801,15.41 -10.1202,30.39 -18.3301,44.25 -1.22,1.9701 1.89,3.8901 3.08,1.88 8.3301,-14.07 13.88,-29.57 18.72,-45.1399 0.4096,-1.3503 -0.7296,-2.2502 -1.82,-2.2501 -0.7,-1e-4 -1.3999,0.37 -1.6499,1.26"
         style="fill:#ffffff;fill-opacity:1;fill-rule:nonzero;stroke:none"
         id="path242-0-2" />
      <path
         d="m 1539.88,5505.3693 c -4.9299,17.0399 -10.1799,34.0398 -17.94,50.03 -0.9599,2.0999 2.3599,3.5999 3.3,1.4399 7.8301,-16.1299 13.1001,-33.28 18.1,-50.4699 0.3903,-1.35 -0.7396,-2.2602 -1.83,-2.2601 -0.6898,-1e-4 -1.38,0.37 -1.63,1.2601"
         style="fill:#ffffff;fill-opacity:1;fill-rule:nonzero;stroke:none"
         id="path244-3-5" />
      <path
         d="m 1641.0283,4874.582 c -15.5718,59.0543 -5.9229,120.7448 -10.4632,180.9166 -1.6451,24.2439 -7.464,47.8509 -15.1165,70.8502 -8.3135,25.0665 -14.6904,50.751 -18.007,76.9753 -2.9339,19.0074 -2.9274,38.2788 -3.7486,57.4629 -1.2192,19.173 -2.8577,38.3287 -2.4913,57.5672 -0.022,13.0624 2.5011,25.9906 1.9217,39.0598 -2.9404,25.6503 -13.7751,48.915 -25.1213,71.6406 -4.3168,8.2856 -8.8485,16.4464 -13.7592,24.3594 -2.217,4.8181 -8.0143,8.6226 -3.4034,12.6023 2.2267,1.2828 5.2768,0.095 5.6086,-2.5729 6.8746,-10.7675 13.319,-21.8447 19.0434,-33.2622 10.7892,-21.4494 20.6529,-43.9439 24.3335,-67.8157 1.703,-11.5919 -0.5105,-23.2243 -1.0762,-34.7816 -1.5105,-25.556 1.573,-51.0284 2.5851,-76.5011 0.1722,-8.9864 0.4302,-18.8105 1.1242,-27.5437 2.2626,-24.7153 6.2165,-49.3979 13.2154,-73.2253 9.3933,-30.9208 20.3186,-61.6762 22.0424,-94.2282 4.4392,-55.8492 -5.4683,-99.6912 6.0912,-154.8373"
         style="fill:#ffffff;fill-opacity:1;fill-rule:nonzero;stroke:none"
         id="path8074-1"
         sodipodi:nodetypes="ccccccccccccccccccc" />
      <path
         d="m 959.02354,4934.2304 c -0.93646,0.7285 4.94759,4.2207 8.12585,6.3676 1.09787,0.7417 -0.86303,-0.8208 1.7309,1.3545 0.78973,1.9682 49.19791,30.6519 50.68801,31.914 31.309,17.86 7.8227,4.3762 37.7627,22.7982 19.6702,12.852 37.94,31.3409 55.1701,47.282 8.2199,7.449 15.6999,15.75 24.4199,22.6479 18.8901,14.18 39.4602,26.9111 56.9402,42.782 32.7698,30.199 67.2599,60.6789 90.3798,99.039 11.4802,18.769 22.28,38 31.0802,58.1331 15.0599,36.3979 30.6698,73.136 52.6699,105.956 21.4099,31.96 45.4599,63.3599 77.51,85.33 5.6,3.3999 11.58,6.1399 17.6301,8.65 1.8098,0.7502 3.9499,-0.16 4.6899,-1.9601 0.7502,-1.8099 -0.13,-3.95 -1.95,-4.7 -5.66,-2.4 -11.25,-4.86 -16.5001,-8.0499 -23.39,-16.2301 -42.3999,-37.41 -59.1899,-60.0001 -18.61,-25.1499 -34.79,-51.9001 -47.5499,-80.469 -10.9301,-21.828 -18.8501,-45.75 -30.0702,-67.3 -10.15,-19.918 -21.43,-39.348 -34.32,-57.6179 -12.55,-17.48 -27.4898,-32.7421 -42.7799,-47.7221 -16.7701,-16.629 -33.9601,-33.02 -52.44,-47.649 -18.7199,-14.898 -40.16,-26.379 -56.7201,-43.8789 -20.2699,-19.679 -42.0399,-37.91 -65.78,-53.2932 -18.09,-11.5069 -39.3874,-21.6474 -57.5274,-32.9954 -10.76008,-7.0499 -21.16995,-11.4794 -31.89994,-18.5504"
         style="fill:#ffffff;fill-opacity:1;fill-rule:nonzero;stroke:none"
         id="path7994-3"
         sodipodi:nodetypes="csccccccccccsccccccccccccc" />
      <path
         d="m 1211.8221,4921.1183 c 13.9099,20.4801 13.43,46.5801 15.8399,70.3101 2.09,33.42 2.0001,67.41 7.5001,100.45 2.9999,16.2999 10.2,31.48 18,45.99 3.8099,7.47 7.34,15.02 9.5,22.9599 1.43,5.8802 2.1598,11.9201 3.2,17.8801 0.3,1.94 2.32,3.21 4.1899,2.85 1.99,-0.37 3.1599,-2.2701 2.8801,-4.22 -0.6301,-3.9 -1.25,-7.8201 -1.9101,-11.7101 -1.73,-11.1899 -6.57,-21.5799 -11.7299,-31.5499 -15.73,-27.2601 -19.57,-50.05 -21.09,-80.9099 -2.48,-28.1201 -2.0201,-56.9201 -5.3602,-84.9001 -1.5899,-13.5199 -2.9699,-26.57 -8.3199,-39.1 -8.27,-20.11 -27.82,-32.5599 -37,-52.05"
         style="fill:#ffffff;fill-opacity:1;fill-rule:nonzero;stroke:none"
         id="path8002-7"
         sodipodi:nodetypes="cccccccccccccc" />
      <path
         d="m 1328.2203,4929.7094 c -30.18,14.8831 -55.5901,37.293 -79.82,60.2112 -5.39,5.16 -11.5754,17.8482 -16.9253,23.0362 -0.7101,0.679 -0.5701,1.213 1.1652,-4.7672 0.75,0.6919 0.098,8.5771 0.7978,7.8851 7.0201,-6.871 15.3322,-21.6852 22.3922,-28.2562 l -0.031,0.022 c -0.051,0.046 -0.1,0.09 -0.1498,0.1365 18.33,-16.5699 36.66,-33.578 58.1,-46.109"
         style="fill:#ffffff;fill-opacity:1;fill-rule:nonzero;stroke:none"
         id="path8970-8"
         sodipodi:nodetypes="ccccccccc" />
      <path
         d="m 1327.2325,5059.8963 c -3.4099,16.053 -8.0599,31.774 -10.8699,47.9412 -3.9201,31.286 -6.39,62.8627 -5.6501,94.4083 -0.1399,12.0656 -0.86,24.3392 -4.3199,35.917 -1.05,1.0694 -0.1901,3.146 1.2499,3.115 2.9601,-0.187 2.8501,-5.4202 3.6799,-7.6632 2.9901,-13.5921 3.1202,-27.6101 2.9601,-41.5033 -0.7499,-20.0717 1.4899,-39.9564 3.04,-59.9241 0.9,-13.2184 2.57,-26.3849 5.78,-39.2398"
         style="fill:#ffffff;fill-opacity:1;fill-rule:nonzero;stroke:none;stroke-width:1"
         id="path8938-7"
         sodipodi:nodetypes="ccccccccc" />
      <path
         d="m 1106.645,4965.7513 c 9.1058,5.8727 17.4201,12.989 24.1419,21.4885 4.2534,5.3289 8.6006,10.5903 12.5581,16.1452 4.0368,5.9014 8.324,11.8653 14.2759,15.9887 4.8596,3.8494 11.1893,4.7322 16.4072,7.9199 9.616,5.5069 18.9577,11.4659 28.2199,17.5405 3.4185,2.4154 6.6423,5.105 9.7819,7.8717 4.2076,3.7867 8.23,8.2469 13.5133,10.4121 2.0664,0.9336 4.1956,1.7202 6.315,2.5262 0.3586,0.3413 0.9382,0.3032 1.2654,-0.053 1.1452,-1.5662 -2.1122,-1.9536 -3.0122,-2.461 -2.0737,-0.7941 -3.9552,-1.5516 -5.8484,-2.574 -3.6737,-1.992 -6.5727,-4.9752 -9.5871,-7.79 -2.7401,-2.5501 -5.632,-4.9319 -8.5788,-7.2389 -4.9199,-3.8179 -10.3809,-6.8446 -15.5606,-10.2872 -6.2022,-3.8781 -12.3994,-7.8212 -18.907,-11.1724 -2.6802,-1.2847 -5.5829,-2.0426 -8.2879,-3.2694 -2.7306,-1.3136 -5.2229,-3.0747 -7.5301,-5.0329 -5.2974,-4.5325 -8.8941,-10.4747 -12.9599,-16.0032 -3.6567,-4.9222 -7.5662,-9.652 -11.3913,-14.4443 -7.4435,-9.1564 -20.4828,-20.6923 -31.5901,-24.7171"
         style="fill:#ffffff;fill-opacity:1;fill-rule:nonzero;stroke:none;stroke-width:1"
         id="path7984-5"
         sodipodi:nodetypes="ccccccccccccccccccccc" />
      <path
         d="m 1418.3958,5194.2891 c -5.3434,5.3372 -8.6494,12.0539 -11.7039,18.8556 -8.3476,16.5754 -13.5678,34.0243 -20.0795,51.2696 -4.7397,11.1502 -10.9514,21.9204 -19.9831,30.1117 -4.1895,4.3398 -9.1347,8.8688 -12.8609,13.7778 -2.5616,3.2875 -4.7362,6.9245 -7.5799,9.8694 -0.445,0.5303 -1.0711,0.7813 -1.4152,1.4012 -0.8818,1.7223 1.3982,3.3267 2.7195,2.1031 -0.053,0.047 -0.1122,0.087 -0.1736,0.1277 0.1089,-0.085 0.2047,-0.1803 0.3043,-0.271 0.033,-0.039 0.06,-0.071 0.092,-0.1105 -0.025,0.03 -0.033,0.055 -0.057,0.083 5.6151,-5.0617 8.8561,-12.3867 14.5098,-17.4596 2.6738,-2.6164 5.2665,-5.4219 7.9216,-8.0223 5.8192,-5.5838 10.7554,-12.0452 14.4229,-19.2346 8.4976,-15.2746 12.1016,-32.7115 19.2457,-48.5694 3.7788,-8.5342 7.2977,-17.1486 12.0372,-25.1761 1.5538,-2.2899 3.3661,-4.3754 5.2302,-6.4289 2.1797,-2.5309 17.7007,-20.0025 12.6192,-14.7934"
         style="fill:#ffffff;fill-opacity:1;fill-rule:nonzero;stroke:none;stroke-width:1"
         id="path8064-94"
         sodipodi:nodetypes="ccccccccccccccccccc" />
      <path
         d="m 1135.8426,5189.8307 c -0.4601,0.809 -0.1901,2.02 0.6798,2.4491 11.0703,5.4419 22.2301,10.6659 32.9901,16.6759 22.1401,12.68 43.23,26.8299 62.82,43.1401 18.19,14.2499 34.78,30.59 45.61,51.2199 11.96,18.8701 23.09,38.41 36.3,56.4399 11.44,15.6701 25.5701,29.3801 40.8901,41.1701 16.3399,13.23 35.4999,22.16 55.0899,29.44 1.3799,0.61 3.3701,1.58 4.1801,-0.28 0.3599,-0.9101 -0.09,-2 -1.0001,-2.34 -3.9502,-1.5197 -7.87,-3.0901 -11.7899,-4.6601 -14.5901,-5.6399 -28.53,-13.0499 -41.0101,-22.5199 -19.76,-14.5299 -36.8499,-32.34 -50.52,-52.71 -7.81,-12.3501 -15.55,-24.7 -23.31,-37.0801 -7.94,-12.53 -14.7799,-25.9799 -25.03,-36.8699 -24.9799,-25.34 -54,-46.52 -84.54,-64.64 -12.51,-7.556 -25.8,-13.685 -38.9099,-20.115 -0.2898,-0.14 -0.5885,-0.2142 -0.89,-0.21 -0.63,0 -1.2201,0.281 -1.56,0.89"
         style="fill:#ffffff;fill-opacity:1;fill-rule:nonzero;stroke:none"
         id="path9360-0" />
      <path
         d="m 1205.5762,5291.277 c 10.0458,6.2822 20.8009,10.9321 31.5265,15.8326 10.8727,5.3664 22.1105,9.9378 33.1038,15.0319 6.7125,3.3712 12.9013,7.4588 19.1087,11.6496 8.5901,5.1473 14.2909,13.429 21.1581,20.4924 1.2896,1.3838 2.5866,2.7494 3.8906,4.1313 0.4333,0.4537 1.188,0.4527 1.6384,0.012 0.4652,-0.4424 0.4518,-1.1828 0.018,-1.6363 -6.158,-6.2003 -11.6019,-13.0344 -17.7701,-19.1837 -3.7505,-3.3517 -8.0671,-5.9949 -12.2134,-8.8032 -9.7597,-6.8379 -20.5521,-11.57 -31.4627,-16.1187 -16.4209,-7.8945 -33.5114,-14.5548 -49.0454,-24.147 0.4043,-0.8083 -0.015,-1.5108 -0.603,-1.7593 -0.5535,-0.2355 -1.2451,-0.075 -1.5366,0.7466 -0.038,0.076 -0.069,0.1602 -0.098,0.2395 -0.676,1.8572 0.7349,2.6869 2.2818,3.5113"
         style="fill:#ffffff;fill-opacity:1;fill-rule:nonzero;stroke:none;stroke-width:1"
         id="path9356-4" />
      <path
         d="m 1026.3072,5049.0422 c 11.5888,2.4675 23.2857,3.1585 35.0403,4.0949 12.0525,1.3244 24.176,1.7765 36.2488,2.8035 7.4607,0.8719 14.6742,2.5963 21.9407,4.4113 9.8325,1.8991 18.0219,7.7315 26.8908,12.0202 1.6851,0.8592 3.3709,1.6989 5.0689,2.5515 0.5625,0.2781 1.2713,0.019 1.5438,-0.5491 0.2858,-0.5748 0.02,-1.266 -0.5428,-1.5438 -7.9071,-3.7202 -15.3602,-8.2804 -23.2595,-11.9491 -4.6706,-1.8668 -9.6311,-2.8742 -14.4877,-4.095 -11.5099,-3.0875 -23.2698,-3.8431 -35.0784,-4.3858 -18.9679,-0.1696 -49.4629,-3.6599 -64.2011,-5.6575"
         style="fill:#ffffff;fill-opacity:1;fill-rule:nonzero;stroke:none;stroke-width:1"
         id="path9356-4-3"
         sodipodi:nodetypes="cccccccccccc" />
      <path
         d="m 1009.9223,4855.6181 c -0.4493,0.1636 -0.6764,0.6598 -0.5271,1.1102 1.2535,3.6751 2.5102,7.379 2.9674,11.2561 0.3755,2.7001 0.6645,5.4338 0.5175,8.1661 -0.2936,3.6871 -1.0589,7.3359 -1.0036,11.056 -0.046,8.7734 1.0927,17.5825 2.3201,26.201 1.4225,9.1938 3.0686,18.6619 7.7065,26.8569 4.7123,8.6643 13.367,13.7834 20.3489,20.3851 2.2623,2.1709 4.3057,4.5463 6.3683,6.9024 3.6029,4.0482 7.456,8.1373 10.8231,12.3298 4.4813,5.6318 8.2599,12.1108 9.4536,19.2733 0.219,1.5451 0.2937,3.107 0.3153,4.6642 -0.065,0.7629 -0.034,1.8965 1.0446,1.7352 0.4284,-0.091 0.7581,-0.5294 0.6811,-0.9698 0,-1.923 -0.046,-3.8581 -0.3393,-5.757 -1.6751,-10.1996 -8.272,-18.674 -15.0254,-26.1467 -4.409,-4.6908 -8.385,-9.7957 -13.0975,-14.1927 -4.9867,-4.7315 -10.9771,-8.4187 -15.3503,-13.7785 -7.8193,-9.2371 -9.7038,-21.6391 -11.4608,-33.2251 -0.6234,-4.0097 -1.0565,-7.9687 -1.3912,-11.9952 -0.4186,-4.4894 -0.8519,-8.9784 -0.6376,-13.4882 0.036,-3.1241 0.6666,-6.1879 0.9482,-9.2904 0.2648,-4.5607 -0.3778,-9.1476 -1.3717,-13.5906 -0.597,-2.3587 -1.4056,-4.6687 -2.1829,-6.9748 -0.1181,-0.3565 -0.4695,-0.5754 -0.8258,-0.5754 -0.094,-3e-4 -0.1874,0.017 -0.2814,0.048"
         style="fill:#ffffff;fill-opacity:1;fill-rule:nonzero;stroke:none;stroke-width:1"
         id="path7980-4" />
      <path
         d="m 1023.9424,5018.4497 c 5.2266,3.2686 10.8222,5.6879 16.4026,8.2375 5.6569,2.7919 11.5037,5.1703 17.223,7.8207 3.4925,1.7539 6.7124,3.8806 9.9421,6.061 4.4692,2.6782 7.4351,6.9868 11.008,10.6619 0.671,0.7198 1.3457,1.4303 2.0243,2.1493 0.2254,0.2362 0.618,0.2356 0.8523,0.01 0.2416,-0.2303 0.2356,-0.6151 0.01,-0.8513 -3.204,-3.2258 -6.0363,-6.7815 -9.2454,-9.9808 -1.9517,-1.7434 -4.1973,-3.1191 -6.3545,-4.5802 -5.0778,-3.5575 -10.6928,-6.0195 -16.3694,-8.3861 -8.5434,-4.1072 -17.4351,-7.5726 -25.5172,-12.5632 0.2105,-0.4206 -0.01,-0.786 -0.3139,-0.9153 -0.2879,-0.1228 -0.6477,-0.039 -0.7993,0.3889 -0.021,0.04 -0.041,0.081 -0.056,0.1237 -0.3516,0.9663 0.3825,1.398 1.1873,1.8267"
         style="fill:#ffffff;fill-opacity:1;fill-rule:nonzero;stroke:none;stroke-width:1"
         id="path9356-4-39" />
      <path
         d="m 1524.2835,5015.5632 c 6.189,4.3284 10.6113,10.3689 14.8007,16.5369 11.099,14.874 19.2698,31.1513 28.6772,47.0038 6.604,10.1578 14.5914,19.6858 24.9083,26.1843 4.8797,3.5463 10.5362,7.1478 15.0581,11.3351 3.0935,2.7927 5.8665,5.9969 9.1786,8.4034 0.5302,0.4449 1.1904,0.5833 1.6369,1.1341 1.1675,1.543 -0.7993,3.5189 -2.3129,2.5435 0.059,0.037 0.1252,0.067 0.1929,0.095 -0.1218,-0.064 -0.2333,-0.1409 -0.3461,-0.2148 -0.039,-0.033 -0.071,-0.059 -0.1103,-0.092 0.023,0.032 0.043,0.049 0.07,0.072 -6.4088,-4.0098 -10.8727,-10.6608 -17.3211,-14.6745 -3.0877,-2.1127 -6.1281,-4.4254 -9.1946,-6.5251 -6.7002,-4.4885 -12.6834,-9.9945 -17.5437,-16.4378 -11.0209,-13.567 -17.598,-30.1131 -27.3873,-44.4896 -5.2033,-7.7483 -10.1645,-15.6209 -16.2263,-22.7034 -1.9276,-1.9853 -4.0744,-3.7243 -6.2669,-5.423 -2.5861,-2.1139 -20.9052,-16.6249 -14.9965,-12.3774"
         style="fill:#ffffff;fill-opacity:1;fill-rule:nonzero;stroke:none;stroke-width:1"
         id="path8064-94-5"
         sodipodi:nodetypes="ccccccccccccccccccc" />
      <path
         d="m 1733.8544,4832.5613 c -13.5528,30.8005 -18.6132,64.3007 -22.443,97.4317 -0.812,7.4174 -0.7101,22.2091 -1.4738,29.6223 -1.6602,16.5349 -1.3508,0.1877 2.8892,4.7243 0.9612,-9.7758 1.7408,-31.1611 2.9252,-40.7329 l -0.014,0.037 c -0.01,0.068 -0.019,0.133 -0.028,0.2004 3.3906,-24.4756 6.4996,-49.2868 14.8688,-72.6674"
         style="fill:#ffffff;fill-opacity:1;fill-rule:nonzero;stroke:none"
         id="path8970-8-9"
         sodipodi:nodetypes="cccccccc" />
      <path
         d="m 1872.8619,4745.8831 c 0.5935,0.7168 -0.42,2.9427 -1.2021,3.5162 -9.9568,7.2817 -24.0725,17.5274 -33.6254,25.3146 -19.6017,16.3319 -37.9142,33.9292 -54.3743,53.3932 -15.4393,17.1922 -28.9397,36.1648 -36.0229,58.3621 -8.5015,20.66 -16.0694,41.8358 -25.9478,61.8859 -8.5451,17.4185 -20.0798,33.3738 -33.1197,47.645 -13.7944,15.8664 -31.1126,27.9879 -49.1409,38.5589 -1.2531,0.8405 -3.0444,2.1412 -4.1651,0.4501 -0.5126,-0.8335 -0.259,-1.9851 0.5784,-2.478 3.6261,-2.1829 7.2139,-4.4097 10.8017,-6.6366 13.389,-8.0877 25.8305,-17.8058 36.4765,-29.299 16.9367,-17.7407 30.6743,-38.2478 40.5994,-60.6821 5.5469,-13.5184 11.0247,-27.0251 16.5171,-40.5642 5.6435,-13.7186 10.044,-28.1519 18.2473,-40.6563 20.2002,-29.2929 45.1015,-55.1903 72.031,-78.3383 11.008,-9.6135 23.0317,-17.9573 34.8259,-26.5661"
         style="fill:#ffffff;fill-opacity:1;fill-rule:nonzero;stroke:none"
         id="path9360-0-6"
         sodipodi:nodetypes="ccccccccccccccccc" />
      <path
         d="m 1507.3962,5061.1178 c 5.7148,2.3112 11.6455,3.722 17.5836,5.2639 6.056,1.7672 12.227,3.0943 18.3197,4.7112 3.7441,1.1209 7.2859,2.6519 10.8434,4.2426 4.8662,1.8616 8.5355,5.5896 12.6923,8.5883 0.7856,0.5926 1.5736,1.1749 2.3666,1.7652 0.2632,0.1934 0.6497,0.1248 0.8406,-0.1421 0.1981,-0.2687 0.1248,-0.6469 -0.1379,-0.8401 -3.7154,-2.6206 -7.1221,-5.6304 -10.838,-8.2238 -2.2244,-1.3784 -4.6751,-2.3427 -7.0533,-3.4071 -5.6184,-2.6218 -11.5755,-4.0716 -17.5768,-5.4165 -9.1269,-2.5611 -18.4851,-4.4298 -27.311,-7.9412 0.1342,-0.4507 -0.1469,-0.7722 -0.4681,-0.8468 -0.3046,-0.072 -0.6447,0.074 -0.7197,0.5214 -0.015,0.041 -0.022,0.088 -0.029,0.1311 -0.1788,1.0127 0.6192,1.3103 1.4864,1.5928"
         style="fill:#ffffff;fill-opacity:1;fill-rule:nonzero;stroke:none;stroke-width:1"
         id="path9356-4-39-0" />
      <path
         d="m 1462.1256,4877.4169 c 7.6712,6.7638 13.9926,12.9662 21.2855,20.1412 7.5005,7.666 15.387,15.3594 25.2532,19.9002 8.1814,4.4205 17.7613,4.0761 26.3,7.4256 15.639,5.6304 30.9909,11.9998 46.2552,18.5606 5.6793,2.6776 11.142,5.8112 16.5003,9.0803 7.2022,4.4979 14.3057,10.0388 22.674,11.8612 3.296,0.8406 6.646,1.4482 9.9867,2.0866 0.619,0.411 1.465,0.2034 1.8556,-0.4078 1.2837,-2.6118 -3.629,-2.3355 -5.0905,-2.851 -3.2701,-0.6326 -6.2466,-1.2619 -9.3098,-2.2793 -5.9454,-1.9856 -11.005,-5.6374 -16.1911,-9.0101 -4.712,-3.0534 -9.604,-5.8185 -14.5584,-8.4589 -8.2621,-4.3585 -17.1177,-7.4068 -25.6658,-11.1432 -10.1718,-4.1133 -20.3537,-8.3239 -30.8398,-11.5792 -4.2934,-1.1997 -8.7798,-1.5593 -13.0946,-2.6709 -4.3756,-1.2293 -8.5161,-3.1816 -12.4342,-5.4732 -9.0062,-5.3157 -15.867,-13.1567 -23.313,-20.2646 -6.6839,-6.3187 -17.5797,-14.2575 -24.4785,-20.3403"
         style="fill:#ffffff;fill-opacity:1;fill-rule:nonzero;stroke:none;stroke-width:0.999999"
         id="path7984-3"
         sodipodi:nodetypes="ccccccccccccccccccc" />
      <path
         d="m 1667.9274,5233.5469 c 4.9497,-9.6391 8.5918,-19.9592 10.1633,-30.6807 1.0192,-6.7418 2.1534,-13.4719 2.8028,-20.2614 0.5458,-7.1291 1.2764,-14.4376 4.3692,-20.9846 2.2839,-5.7632 7.3239,-9.6927 10.2492,-15.0622 5.5742,-9.5772 10.6846,-19.4087 15.6687,-29.3006 1.7529,-3.8009 3.2001,-7.7424 4.5356,-11.7081 1.7505,-5.3832 3.0039,-11.257 6.4965,-15.7737 1.3232,-1.8417 2.7736,-3.5876 4.2063,-5.3452 0.1398,-0.4747 0.661,-0.7316 1.1223,-0.5868 1.7749,0.7837 -0.8526,2.748 -1.3781,3.6373 -1.3988,1.7246 -2.6496,3.3213 -3.7779,5.1536 -2.1856,3.5618 -3.2046,7.5947 -4.4076,11.5397 -1.098,3.5784 -2.4116,7.087 -3.8101,10.5587 -2.3515,5.7664 -5.5679,11.1178 -8.3323,16.6889 -3.4322,6.4598 -6.8273,12.9731 -10.7877,19.1292 -1.6787,2.4526 -3.8136,4.5605 -5.5427,6.9754 -1.708,2.5027 -2.986,5.2741 -4.0048,8.1236 -2.3216,6.5742 -2.4653,13.5185 -3.2222,20.3391 -0.7057,6.0912 -1.7265,12.1421 -2.6429,18.2049 -1.8681,11.6513 -7.3925,28.1614 -14.9994,37.2007"
         style="fill:#ffffff;fill-opacity:1;fill-rule:nonzero;stroke:none;stroke-width:1"
         id="path7984-5-2"
         sodipodi:nodetypes="ccccccccccccccccccccc" />
      <path
         d="m 1846.6471,5076.9136 c -10.8142,7.2908 -20.5218,16.1661 -28.7266,26.3187 -4.974,6.4373 -9.7735,13.3303 -15.1763,19.3528 -5.3147,5.7193 -11.0651,11.0272 -18.0675,14.5841 -23.3697,10.6971 -25.9763,14.7193 -42.195,33.6888 -11.5381,12.8473 -26.4931,21.8514 -40.0808,32.2911 -11.2209,8.8367 -21.71,18.6803 -30.7065,29.7982 -5.7271,7.2195 -10.2963,15.1327 -15.331,22.8093 -5.0206,7.8064 -9.0868,16.4659 -15.9306,22.9102 -8.5435,7.5761 -19.0324,12.6716 -29.0526,18.0102 -5.2476,2.9006 -9.8043,6.9053 -14.4125,10.6685 -0.7942,0.4969 -1.1076,1.5422 -0.728,2.366 0.4147,0.9755 1.5731,1.4979 2.5729,1.048 6.4959,-5.7795 13.6347,-10.8903 21.59,-14.5222 8.0651,-4.6231 16.5512,-9.0093 23.3048,-15.4811 6.8995,-6.7809 11.1065,-15.6287 16.2831,-23.6794 6.0127,-9.2146 11.5092,-18.7415 18.9108,-26.8408 8.0427,-9.0332 16.9868,-17.2505 26.5302,-24.6795 10.3173,-7.6567 20.9285,-14.9252 30.7762,-23.1904 7.9525,-6.8101 14.3998,-15.4118 21.3159,-23.0345 4.7349,-5.3056 10.4383,-9.6117 16.7906,-12.852 9.0867,-4.4899 18.3247,-8.3694 25.5614,-15.6626 11.8733,-10.8135 19.4106,-25.3655 31.1292,-36.3508 5.5715,-5.5213 11.5232,-10.1878 17.96,-14.5796 0.8106,-0.6192 0.91,-1.8874 0.2612,-2.6636 -0.2068,-0.2583 -0.483,-0.4483 -0.7786,-0.5554 -0.5808,-0.2114 -1.2575,-0.1288 -1.8008,0.2459"
         style="fill:#ffffff;fill-opacity:1;fill-rule:nonzero;stroke:none;stroke-width:0.999998"
         id="path8078-4" />
      <path
         d="m 1671.2809,4653.9347 c 6.0665,24.0024 -3.3112,48.3642 -9.1627,71.4874 -9.4664,32.1193 -21.1763,64.0286 -27.3082,96.9572 -2.7559,16.3431 -1.182,33.0701 1.1848,49.3729 1.0256,8.3227 1.7603,16.6246 1.0744,24.8245 -0.6673,6.0145 -2.0471,11.94 -3.1083,17.8961 -0.3816,1.9257 1.0821,3.8101 2.9625,4.1113 1.9966,0.333 3.7459,-1.0523 4.1497,-2.9806 0.7419,-3.8802 1.5,-7.7758 2.2102,-11.657 2.2017,-11.1068 1.2071,-22.5256 -0.2315,-33.6592 -5.4556,-30.9964 -1.272,-53.7249 7.8545,-83.2437 7.287,-27.2723 17.5696,-54.1782 24.0005,-81.6131 3.1301,-13.2485 6.2968,-25.9834 5.555,-39.5876 -0.8933,-21.7257 -15.006,-40.1115 -16.9664,-61.5657"
         style="fill:#ffffff;fill-opacity:1;fill-rule:nonzero;stroke:none"
         id="path8002-7-7"
         sodipodi:nodetypes="cccccccccccccc" />
      <path
         d="m 1477.4172,5421.6554 c -2.1883,-6.8074 -5.3043,-13.3225 -9.5738,-19.0587 -2.6702,-3.6213 -5.2815,-7.291 -8.1464,-10.7622 -3.072,-3.5811 -6.1416,-7.3322 -7.7532,-11.8303 -1.6235,-3.7551 -1.1052,-7.9404 -2.2459,-11.8109 -1.8678,-7.0698 -4.0709,-14.0421 -6.361,-20.9836 -0.9549,-2.5916 -2.1193,-5.1059 -3.3466,-7.5795 -1.6953,-3.3287 -3.8511,-6.6545 -4.3292,-10.3918 -0.2421,-1.4767 -0.38,-2.9682 -0.5314,-4.4569 -0.1564,-0.2866 -0.033,-0.6498 0.2498,-0.7974 1.1942,-0.4623 0.8848,1.6799 1.0537,2.3404 0.1518,1.4575 0.3141,2.7861 0.6422,4.1676 0.642,2.6819 2.0485,5.0391 3.3279,7.4413 1.1573,2.1823 2.1817,4.4322 3.1491,6.7048 1.5934,3.788 2.5897,7.7856 3.8994,11.6753 1.4126,4.6157 2.8678,9.2393 3.8922,13.9599 0.3611,1.9276 0.3419,3.9079 0.6687,5.841 0.3706,1.9649 1.0674,3.8544 1.9219,5.6593 1.9844,4.1511 5.1577,7.4583 7.987,10.9942 2.513,3.1715 4.8601,6.4712 7.2614,9.728 4.565,6.3084 9.6913,16.5902 10.3596,24.3575"
         style="fill:#ffffff;fill-opacity:1;fill-rule:nonzero;stroke:none;stroke-width:1"
         id="path7984-5-2-9"
         sodipodi:nodetypes="ccccccccccccccccccccc" />
      <path
         d="m 1461.0071,5230.8004 c 2.3743,8.2728 3.5167,16.8771 3.3578,25.4895 -0.2161,5.364 -0.7138,10.8844 -0.5371,16.2205 0.2607,5.1455 0.9162,10.268 2.9472,15.0361 7.2761,15.3204 6.8876,18.4594 7.04,34.928 0.3831,11.3889 4.1239,22.2841 6.5644,33.3249 1.9239,9.2267 3.051,18.6521 2.8827,28.0883 -0.1672,6.0787 -1.214,12.0173 -1.9252,18.0333 -0.773,6.0758 -2.391,12.1782 -1.665,18.3389 1.1055,7.4536 4.2465,14.4787 7.0471,21.4276 1.4226,3.6922 2.0272,7.6495 2.7605,11.5066 0.1907,0.588 -0.093,1.2493 -0.635,1.5049 -0.6229,0.3182 -1.4307,0.09 -1.7453,-0.5618 -0.8322,-5.6772 -2.2731,-11.2887 -4.7539,-16.4991 -2.116,-5.7581 -4.5454,-11.575 -5.2142,-17.7112 -0.6116,-6.3544 1.0147,-12.6117 1.813,-18.8771 0.869,-7.2086 2.1315,-14.3558 1.8254,-21.5897 -0.234,-7.9779 -1.2696,-15.9258 -2.9429,-23.7292 -1.9678,-8.247 -4.2488,-16.4223 -5.721,-24.7776 -1.1313,-6.8158 -0.742,-13.8986 -1.0048,-20.6859 -0.1424,-4.6905 -1.1997,-9.2863 -3.0364,-13.6189 -2.689,-6.124 -5.7132,-12.0037 -6.2778,-18.7602 -1.4153,-10.5026 0.9471,-21.056 -0.317,-31.5799 -0.4746,-5.1542 -1.5037,-10.0379 -2.8947,-14.9884 -0.1473,-0.6565 0.3405,-1.34 0.9977,-1.4572 0.2143,-0.043 0.4344,-0.021 0.6292,0.05 0.3833,0.1395 0.6898,0.4691 0.8061,0.8882"
         style="fill:#ffffff;fill-opacity:1;fill-rule:nonzero;stroke:none;stroke-width:1"
         id="path8078-4-4" />
    </g>
  </g>
</svg>
