<?xml version="1.0" encoding="UTF-8" standalone="no"?>
<!-- Generator: Adobe Illustrator 26.0.1, SVG Export Plug-In . SVG Version: 6.00 Build 0)  -->

<svg
   version="1.1"
   id="Layer_1"
   x="0px"
   y="0px"
   viewBox="0 0 842.68445 551.92603"
   xml:space="preserve"
   width="842.68445"
   height="551.92603"
   xmlns="http://www.w3.org/2000/svg"
   xmlns:svg="http://www.w3.org/2000/svg"><defs
   id="defs250" />
<style
   type="text/css"
   id="style213">
	.st0{fill:#BF0A30;}
	.st1{fill:#002868;}
</style>
<g
   id="g245"
   transform="translate(-181.18513,-224.26)"><g
   aria-label="DOCS PLANT"
   id="text3931"
   style="font-size:186.667px;line-height:0.8;font-family:Hack;-inkscape-font-specification:Hack;letter-spacing:-10px;fill:#002868;stroke:#000000;stroke-width:0.755906"><path
     d="m 578.49307,464.44351 h 32.47367 q 37.71474,0 54.15717,17.88797 8.11839,8.84118 12.33177,23.43941 4.21338,14.49542 4.21338,35.36472 0,40.60775 -16.54515,58.70133 -16.54514,18.09358 -54.15717,18.09358 h -32.47367 z m 38.53679,126.14103 q 17.8812,0 25.4858,-11.30848 7.6046,-11.30849 7.6046,-38.24325 0,-26.72915 -7.6046,-38.03764 -7.50189,-11.20569 -25.4858,-11.20569 h -8.22111 v 98.79506 z"
     style="font-weight:bold;-inkscape-font-specification:'Hack Bold';stroke-width:0.755906"
     id="path3995" /><path
     d="m 748.15942,620.91186 q -13.87325,0 -23.84144,-5.14023 -9.86543,-5.24303 -16.33962,-14.90664 -13.66772,-20.14966 -13.66772,-59.52377 0,-39.16848 13.66772,-59.62657 7.09077,-10.48605 17.36727,-15.21505 10.27649,-4.83182 22.8138,-4.83182 26.61612,0 40.38663,20.14968 13.56495,20.14966 13.56495,59.52376 0,39.16849 -13.56495,59.42096 -6.57696,9.76642 -16.64793,15.00945 -9.96818,5.14023 -23.73871,5.14023 z m 0,-27.24317 q 11.71522,0 17.05898,-12.43934 5.34377,-12.02812 5.34377,-39.99092 0,-27.86001 -5.34377,-39.88812 -5.34378,-12.43934 -17.05898,-12.43934 -11.50965,0 -16.95621,12.43934 -5.34376,12.02811 -5.34376,39.88812 0,27.9628 5.34376,39.99092 5.3438,12.43934 16.95621,12.43934 z"
     style="font-weight:bold;-inkscape-font-specification:'Hack Bold';stroke-width:0.755906"
     id="path3997" /><path
     d="m 878.03424,620.91185 q -30.7267,0 -47.16909,-20.45809 -16.33962,-20.56088 -16.33962,-59.11254 0,-38.75727 16.33962,-59.21535 16.44239,-20.45809 47.16909,-20.45809 8.94055,0 16.95621,1.85048 8.01566,1.85049 15.00362,5.55145 v 33.71984 q -4.62435,-4.31778 -8.32391,-6.68228 -3.59676,-2.4673 -6.88523,-3.90656 -3.90507,-1.74769 -7.70737,-2.46732 -3.69954,-0.82243 -7.50184,-0.82243 -16.44239,0 -24.97188,13.15897 -8.52949,13.46738 -8.52949,39.27129 0,25.90672 8.52949,39.06568 8.52949,13.26178 24.97188,13.26178 7.91289,0 15.31196,-3.39255 3.59678,-1.64488 7.09085,-4.00937 3.59673,-2.46731 8.01554,-6.47668 v 33.71986 q -7.1935,3.70095 -15.10639,5.55143 -7.91289,1.85048 -16.85344,1.85048 z"
     style="font-weight:bold;-inkscape-font-specification:'Hack Bold';stroke-width:0.755906"
     id="path3999" /><path
     d="m 968.25932,620.91186 q -6.1659,0 -12.0235,-0.61685 -5.8575,-0.61685 -11.71512,-2.05607 -11.92081,-2.77578 -22.1973,-8.12162 v -31.35531 q 12.22906,8.63562 23.53324,12.85061 11.50958,4.21489 22.19718,4.21489 11.3042,0 17.5728,-5.14022 6.1658,-5.03736 6.1658,-14.18696 0,-7.09354 -4.1105,-12.13089 -2.1581,-2.67292 -5.2411,-4.62624 -2.9801,-2.05606 -6.6796,-3.49539 l -14.9009,-5.6542 q -11.818,-4.52336 -19.42259,-9.04673 -7.6046,-4.62623 -11.61244,-9.35522 -8.11839,-9.35523 -8.11839,-25.80398 0,-20.97213 13.35935,-32.79464 13.46228,-11.92527 36.58437,-11.92527 11.4069,0 21.2722,2.26169 9.96818,2.26168 20.96408,7.29915 v 29.60762 q -19.73088,-14.0842 -39.87268,-14.0842 -11.0986,0 -16.7507,4.42061 -5.8576,4.42062 -5.8576,12.54213 0,6.47667 4.3161,10.58891 2.0553,2.05607 6.0631,4.21501 4.1106,2.15882 11.7152,5.03736 l 13.0512,4.9346 q 18.60038,6.88792 27.23268,17.88797 8.735,11.20566 8.735,28.88801 0,22.71982 -13.7706,34.13109 -13.77038,11.51415 -40.48928,11.51414 z"
     style="font-weight:bold;-inkscape-font-specification:'Hack Bold';stroke-width:0.755906"
     id="path4001" /><path
     d="m 520.91004,639.72708 h 36.9141 q 28.073,0 40.56,10.02606 12.3047,9.93492 12.3047,32.53913 0,22.6042 -12.3047,32.53912 -12.487,10.02606 -40.56,10.02606 h -10.0261 v 50.95061 h -26.888 z m 37.9167,62.52616 q 13.3073,0 18.5938,-4.46615 5.2865,-4.46616 5.2865,-15.49482 0,-11.02867 -5.2865,-15.49482 -5.2865,-4.46616 -18.5938,-4.46616 h -11.0286 v 39.92195 z"
     style="font-weight:bold;-inkscape-font-specification:'Hack Bold'"
     id="path4003" /><path
     d="m 618.67064,639.72708 h 26.88807 V 752.1101 h 57.51312 v 23.69796 h -84.4012 z"
     style="font-weight:bold;-inkscape-font-specification:'Hack Bold'"
     id="path4005" /><path
     d="m 748.28546,639.72708 h 32.90371 l 36.73184,136.08098 h -26.88807 l -8.38544,-33.63287 h -36.00267 l -8.20313,33.63287 h -26.88807 z m 29.16672,80.29963 -12.76044,-55.69021 -12.66929,55.69021 z"
     style="font-weight:bold;-inkscape-font-specification:'Hack Bold'"
     id="path4007" /><path
     d="m 827.77518,639.72709 h 28.89328 l 37.91674,98.89341 v -98.89341 h 23.69798 v 136.08096 h -28.71101 l -38.09903,-98.89339 v 98.89339 h -23.69796 z"
     style="font-weight:bold;-inkscape-font-specification:'Hack Bold'"
     id="path4009" /><path
     d="m 962.05926,663.24264 h -34.54425 v -23.5156 h 95.97659 v 23.5156 h -34.54424 v 112.56544 h -26.8881 z"
     style="font-weight:bold;-inkscape-font-specification:'Hack Bold'"
     id="path4011" /></g>
	
	<path
   class="st0"
   d="m 527.03,394.27 c -17.71,-37.81 -42.66,-72.01 -71.77,-101.85 -26.14,-26.64 -55.99,-49.67 -88.39,-68.16 -35.98,20.56 -68.8,46.65 -96.86,77.09 -35.84,38.96 -64.86,85.14 -79.65,136.23 -8.88,30.99 -12.13,64.04 -6.09,95.9 6.18,33.42 22.98,64.82 47.47,88.39 30.08,29.34 70.77,46.78 112.38,50.99 -0.04,-7.42 -0.04,-17.65 -0.04,-25.06 l -0.16,-0.01 v -62.5 l -78.7,-53.28 -6.67,9.85 73.45,49.74 v 55.05 l -0.16,-0.01 c -23.3,-4.26 -45.77,-13.37 -65.14,-27.05 -26.37,-18.31 -46.42,-45.68 -55.3,-76.63 -8.97,-30.3 -7.19,-62.85 0.64,-93.2 11.08,-42.34 33.37,-81.11 60.79,-114.94 26.55,-32.41 58.41,-60.43 94.03,-82.44 43.3,26.82 81.25,62.44 110.5,104.23 22.52,32.36 40.1,68.76 47.56,107.66 4.44,23.9 4.99,48.89 -0.96,72.6 -4.99,20.69 -14.88,40.19 -28.47,56.58 -23.48,28.24 -57.63,46.69 -93.57,53.19 l -0.32,0.06 v -25.23 l 78.48,-74.47 -8.19,-8.64 -82.19,77.98 v 32.37 l -0.04,0.01 c 0,7.05 0,17.14 -0.04,24.14 43.16,-4.35 85.37,-22.98 115.72,-54.29 27.15,-27.6 43.76,-65.05 46.6,-103.59 3.29,-41.61 -7.37,-83.22 -24.91,-120.71 z"
   id="path241"
   style="fill:#547c45;fill-opacity:1" />
	<path
   class="st1"
   d="m 446.75,483.34 45.58,-0.1 -0.03,-11.9 -33.15,0.07 24.44,-23.51 -8.25,-8.57 -66.88,64.33 0.4,-30.35 -11.9,-0.16 -0.56,42.11 -23.59,22.69 V 459.9 l 94.69,-91.06 -8.25,-8.57 -31.62,30.41 0.74,-56.53 -11.9,-0.16 -0.9,68.28 -42.75,41.12 V 297.76 h -11.9 v 117.53 l -40.58,-33.89 -17.02,-48.31 -11.23,3.95 15.5,44 -50.81,15.51 3.48,11.38 53.67,-16.39 47,39.24 v 24.03 l -0.1,0.1 0.1,0.1 v 53.71 l -97.17,-81.14 -7.63,9.14 38.85,32.44 -50.79,13.52 3.06,11.5 58.91,-15.68 54.76,45.73 v 211.89 c -8.41,2.56 -14.57,10.28 -14.57,19.53 0,11.32 9.18,20.5 20.5,20.5 11.32,0 20.5,-9.18 20.5,-20.5 0,-9.23 -6.14,-16.95 -14.54,-19.52 V 554.46 Z"
   id="path243" />
</g>
</svg>
