<?xml version="1.0" encoding="UTF-8" standalone="no"?>
<!-- Created with Inkscape (http://www.inkscape.org/) -->

<svg
   version="1.1"
   id="svg18"
   width="17.371082"
   height="17.240864"
   viewBox="0 0 17.371082 17.240865"
   xmlns="http://www.w3.org/2000/svg"
   xmlns:svg="http://www.w3.org/2000/svg">
  <defs
     id="defs22" />
  <g
     id="g26"
     transform="matrix(1.3333333,0,0,-1.3333333,-370.45112,875.8479)">
    <g
       id="g28"
       transform="scale(0.1)">
      <path
         d="m 2854.1974,6443.6279 c 1.5,8.68 23.5192,1.7381 30.8492,4.2981 1.48,0.6 2.87,1.49 3.82,2.83 8.09,11.76 12.72,25.92 12.51,40.23 -0.2,14.25 -1.92,29.62 -10.83,41.25 -6.22,7.72 -13.86,14 -22.04,19.5 -2.4,1.61 -6.46,3.06 -5.25,6.69 0.83,2.53 4.38,3.33 6.1,1.23 6.46,-3.92 12.56,-8.48 18.1,-13.61 13.32,-11.34 20.01,-28.23 20.72,-45.45 2.01,-19.1 -2.1024,-38.3041 -13.4824,-53.9141 -48.6694,-13.9297 -28.6536,-0.4924 -33.0436,-6.8324"
         style="fill:#ffffff;fill-opacity:1;fill-rule:nonzero;stroke:none"
         id="path40-3" />
      <path
         d="m 2865.686,6443.1003 c -0.94,0.69 0.9806,-3.8543 0.021,-3.1743 -0.06,0.03 -0.12,0.08 -0.18,0.12 -15.02,-2.38 -29.48,4.31 -42.85,10.33 -13.9,6.46 -27.91,14.91 -36.05,28.32 -16.02,28.27 -8.87,72.3 23.02,86.05 10.04,5.26 22.23,4.9 32.81,2.13 5.53,-1.73 33.36,-7.34 29.2,-15.4 -3.56,-4.76 -8.19,1.94 -12.14,2.83 -26.03,9.27 -46.67,13.28 -65.36,-11.57 -11.58,-19.41 -11.96,-46.9 2,-65.16 6.49,-7.63 14.84,-13.36 23.74,-17.84 11.55,-5.58 23.44,-11.45 36.32,-12.92 3.26,-0.4 6.49,0.27 9.74,0.41 2.75,-0.07 4.94,-2.17 7.05,-3.72 2.94,-2.3 3.7789,2.6084 0.8289,2.6084 -0.71,0 -1.2216,-2.9781 -1.9516,-2.4181"
         style="fill:#ffffff;fill-opacity:1;fill-rule:nonzero;stroke:none"
         id="path64-9" />
      <path
         d="m 2833.8066,6451.716 c 0.89,-0.32 2.08,0.27 2.85,0.61 11.9,6.55 16.79,19.68 22.61,31.13 0.48,1.25 1.29,2.94 2.93,2.3 0.87,-0.33 1.42,-1.43 1.01,-2.34 -2.19,-4.82 -4.65,-9.53 -7.11,-14.22 -3.79,-7.81 -13.31,-21.45 -22.89,-21.02 l 0.09,-0.01 c -2.2,0.38 -1.71,3.82 0.51,3.55"
         style="fill:#ffffff;fill-opacity:1;fill-rule:nonzero;stroke:none"
         id="path218-8" />
      <path
         d="m 2843.7066,6446.436 c -0.41,0.92 0.03,1.96 0.91,2.38 1.89,0.75 3.16,2.07 4.38,3.49 5.58,7 9.43,14.95 13.36,22.85 2.55,5.43 5.19,10.96 7.56,16.49 0.83,2.17 4.23,0.84 3.35,-1.31 -2.8,-5.99 -18.87,-44.66 -27.63,-44.66 -0.69,0 -1.34,0.24 -1.93,0.76"
         style="fill:#ffffff;fill-opacity:1;fill-rule:nonzero;stroke:none"
         id="path220-1" />
      <path
         d="m 2848.6066,6445.996 c -0.57,1.84 1.6,2.42 2.84,2.82 6.63,2.83 10.64,9.57 14.54,15.1 7.16,10.81 11.67,23.24 15.33,35.48 0.84,2.73 1.66,5.46 2.41,8.22 0.26,0.95 1.2,1.56 2.17,1.32 0.94,-0.22 1.59,-1.23 1.32,-2.17 -4.89,-17.53 -10.6,-35.21 -21.75,-49.91 -3.75,-4.95 -8.04,-10.17 -14.25,-11.94 -0.26,-0.13 -0.55,-0.19 -0.83,-0.19 -0.78,0 -1.55,0.47 -1.78,1.27"
         style="fill:#ffffff;fill-opacity:1;fill-rule:nonzero;stroke:none"
         id="path222-4" />
      <path
         d="m 2857.4866,6445.476 c -0.32,1.07 0.41,2.09 1.46,2.32 17.43,12.04 28.47,44.47 33.08,64.63 0.5,2.23 4.07,1.44 3.5,-0.86 -5.08,-22.05 -13.38,-44.32 -28.25,-61.68 -1.46,-1.34 -5.39,-5.64 -7.98,-5.64 -0.74,0 -1.37,0.36 -1.81,1.23"
         style="fill:#ffffff;fill-opacity:1;fill-rule:nonzero;stroke:none"
         id="path224-7" />
      <path
         d="m 2865.1366,6443.786 c -1.19,2.53 2.68,3.47 3.92,5.06 14.31,14.26 21.74,33.62 26.01,52.99 0.5,2.25 4.06,1.43 3.49,-0.85 -3.86,-17.92 -10.62,-35.41 -22.32,-49.73 -1.54,-1.6 -6.7,-8.22 -9.69,-8.22 -0.56,0 -1.03,0.22 -1.41,0.75"
         style="fill:#ffffff;fill-opacity:1;fill-rule:nonzero;stroke:none"
         id="path226-1" />
      <path
         d="m 2874.7766,6443.326 c -2.26,0.53 -1.42,4.06 0.84,3.5 3.05,0.76 5.01,4.62 6.78,6.9 8.11,12.84 13.12,27.27 17.88,41.61 0.8,2.16 4.21,0.87 3.36,-1.31 -3.52,-10.08 -16.4,-50.71 -28.48,-50.71 -0.13,0 -0.25,0 -0.38,0.01"
         style="fill:#ffffff;fill-opacity:1;fill-rule:nonzero;stroke:none"
         id="path228-3" />
      <path
         d="m 2815.2166,6540.506 c -3.4,5.29 -6.24,11.25 -10.55,15.75 -0.73,0.63 -0.73,1.84 -0.07,2.54 3.53,3.5 11.51,-13.77 13.68,-16.43 0.86,-1.37 -0.4,-2.71 -1.63,-2.71 -0.54,0 -1.06,0.23 -1.43,0.85"
         style="fill:#ffffff;fill-opacity:1;fill-rule:nonzero;stroke:none"
         id="path230-8" />
      <path
         d="m 2823.1566,6539.376 c -3.14,6.06 -6.13,12.44 -10.8,17.5 -1.76,0.36 -1.84,3.01 -0.09,3.48 2.12,0.44 3.5,-1.88 4.69,-3.27 3.74,-5.05 6.71,-10.65 9.5,-16.26 0.43,-0.89 -0.06,-1.99 -0.93,-2.37 -0.23,-0.11 -0.47,-0.16 -0.71,-0.16 -0.68,0 -1.34,0.42 -1.66,1.08"
         style="fill:#ffffff;fill-opacity:1;fill-rule:nonzero;stroke:none"
         id="path232-4" />
      <path
         d="m 2836.5166,6526.506 c -5.43,12.09 -9.5,26.18 -19.12,35.58 -1.45,1.84 1.22,3.97 2.86,2.46 9.17,-9.5 13.44,-22.58 18.71,-34.44 0.54,-1.44 1.88,-3.6 -0.08,-4.53 -0.22,-0.09 -0.46,-0.14 -0.7,-0.14 -0.7,0 -1.41,0.4 -1.67,1.07"
         style="fill:#ffffff;fill-opacity:1;fill-rule:nonzero;stroke:none"
         id="path234-8" />
      <path
         d="m 2849.7866,6511.946 c -4.9,18.39 -12.16,36.03 -23.8,51.14 -1.46,1.78 1.34,4.12 2.79,2.28 5.31,-7.17 10.05,-14.73 13.93,-22.73 4.41,-9.55 7.68,-19.59 10.54,-29.69 0.4,-1.36 -0.74,-2.26 -1.82,-2.26 -0.7,0 -1.39,0.36 -1.64,1.26"
         style="fill:#ffffff;fill-opacity:1;fill-rule:nonzero;stroke:none"
         id="path236-0" />
      <path
         d="m 2861.4166,6496.266 c -4.12,22.61 -9.58,46.32 -23.4,64.97 -1.52,1.89 1.42,4.08 2.96,2.31 8.44,-11.25 13.34,-24.97 17.75,-38.22 2.57,-9.39 4.54,-18.94 6.25,-28.53 0.2,-1.26 -0.84,-2.01 -1.85,-2.01 -0.78,0 -1.56,0.46 -1.71,1.48"
         style="fill:#ffffff;fill-opacity:1;fill-rule:nonzero;stroke:none"
         id="path238-4" />
      <path
         d="m 2869.1766,6503.776 c -5.19,17.31 -9.06,35.48 -18.7,50.99 -1.21,1.98 1.86,3.89 3.08,1.89 7.82,-12.35 11.69,-26.61 15.82,-40.51 1.1,-3.79 2.2,-7.57 3.26,-11.37 0.27,-0.95 -0.28,-1.96 -1.23,-2.23 -0.15,-0.04 -0.32,-0.07 -0.48,-0.07 -0.77,0 -1.53,0.52 -1.75,1.3"
         style="fill:#ffffff;fill-opacity:1;fill-rule:nonzero;stroke:none"
         id="path240-6" />
      <path
         d="m 2878.3066,6506.226 c -4.78,15.41 -10.12,30.39 -18.33,44.25 -1.22,1.97 1.89,3.89 3.08,1.88 8.33,-14.07 13.88,-29.57 18.72,-45.14 0.41,-1.35 -0.73,-2.25 -1.82,-2.25 -0.7,0 -1.4,0.37 -1.65,1.26"
         style="fill:#ffffff;fill-opacity:1;fill-rule:nonzero;stroke:none"
         id="path242-0" />
      <path
         d="m 2887.9266,6498.576 c -4.93,17.04 -10.18,34.04 -17.94,50.03 -0.96,2.1 2.36,3.6 3.3,1.44 7.83,-16.13 13.1,-33.28 18.1,-50.47 0.39,-1.35 -0.74,-2.26 -1.83,-2.26 -0.69,0 -1.38,0.37 -1.63,1.26"
         style="fill:#ffffff;fill-opacity:1;fill-rule:nonzero;stroke:none"
         id="path244-3" />
    </g>
  </g>
</svg>
